:SAMPLES-PER-SECOND 30
:FULLY-SPECIFIED
:DEGREES
590
root  85.1645 38.5825 -1.8722 -45.9764 -84.7662 43.5649
RightUpLeg  1.80918 -10.9818 -5.58239
RightLeg  14.1194 -1.33665 0.54893
RightFoot  -15.582 -0.138387 -0.891436
RightToes  -4.65661e-009 0 -3.6325e-017
Spine  6.06852 0.967435 11.9326
Spine1  2.9014 3.54319 -9.40369
HEad  -4.14137 -6.87335 -8.10466
LeftShoulder1  -0.484107 4.81482 -30.7806
LeftArm  -7.94741 17.323 -41.8166
LeftForeArm  28.9664 -15.9044 -4.56455
LeftHand  -0.0344275 5.30939 -0.389913
RightShoulder  -1.02667 -6.28427 30.3716
RightArm  15.5179 -1.82398 46.7154
RightForeArm  15.5194 10.1472 7.187
RightHand  -0.23159 5.05674 -2.88738
LeftUpLeg  -17.0853 3.02462 -1.40486
LeftLeg  26.9915 1.55546 1.19144
LeftFoot  -9.45866 0.121091 -3.89995
LeftToes  9.86798e-010 -1.28139e-010 1.4132e-011
591
root  84.8285 38.6232 -1.84358 -51.6428 -84.8689 49.455
RightUpLeg  2.43637 -10.8631 -5.92688
RightLeg  13.3549 -0.903146 0.511233
RightFoot  -15.5481 -0.144237 -1.06751
RightToes  -4.65661e-009 0 -3.6325e-017
Spine  6.22293 1.39247 12.0773
Spine1  2.72478 4.09374 -10.3094
HEad  -4.32076 -6.78675 -8.15848
LeftShoulder1  -0.438413 4.68824 -30.873
LeftArm  -7.68001 17.955 -42.4953
LeftForeArm  29.1439 -14.8637 -4.96831
LeftHand  -0.0378227 6.42824 -0.307861
RightShoulder  -1.00936 -6.25356 30.1499
RightArm  18.4982 0.28878 47.7168
RightForeArm  14.0649 11.7906 7.34853
RightHand  -0.210379 5.09328 -2.65569
LeftUpLeg  -18.1104 4.08113 -1.67057
LeftLeg  24.0506 1.62189 1.12913
LeftFoot  -9.11113 0.134958 -4.12331
LeftToes  9.86798e-010 -1.28139e-010 1.4132e-011
592
root  84.4224 38.6162 -1.7878 -50.5344 -84.4714 48.0927
RightUpLeg  3.66652 -10.9677 -6.38582
RightLeg  12.9829 -1.05537 0.421364
RightFoot  -15.9622 -0.140907 -0.81456
RightToes  -4.65661e-009 0 -3.6325e-017
Spine  6.31165 1.52027 11.6967
Spine1  3.19195 4.2359 -10.2818
HEad  -4.99045 -7.31969 -8.38745
LeftShoulder1  -0.4214 4.6334 -31.1643
LeftArm  -9.01189 17.8139 -43.1519
LeftForeArm  30.5888 -12.8085 -5.312
LeftHand  -0.0428496 7.23308 -0.62455
RightShoulder  -0.922481 -6.04517 29.7124
RightArm  22.1395 2.26843 48.5518
RightForeArm  11.8933 13.9594 7.15463
RightHand  -0.243177 3.75476 -3.32712
LeftUpLeg  -18.3889 4.18471 -1.87031
LeftLeg  20.6214 0.899831 0.694538
LeftFoot  -9.1472 0.126834 -3.74146
LeftToes  9.86798e-010 -1.28139e-010 1.4132e-011
593
root  83.9831 38.6279 -1.72111 -49.0836 -84.1607 46.8304
RightUpLeg  4.68952 -10.8017 -6.59946
RightLeg  12.0568 -1.47892 0.230434
RightFoot  -16.1071 -0.134683 -0.619812
RightToes  -4.65661e-009 0 -3.6325e-017
Spine  5.89031 1.47891 11.4171
Spine1  3.78735 4.26637 -10.8141
HEad  -5.26572 -7.25641 -7.75484
LeftShoulder1  -0.37632 4.51533 -31.0628
LeftArm  -8.94949 18.3621 -43.4514
LeftForeArm  32.3717 -12.0303 -5.52748
LeftHand  -0.0242901 4.97956 -1.73658
RightShoulder  -0.857564 -5.89557 29.2563
RightArm  24.369 4.66544 49.8244
RightForeArm  10.4721 14.6893 7.18231
RightHand  -0.312348 4.37878 -4.00452
LeftUpLeg  -19.1501 4.38519 -2.08774
LeftLeg  17.5278 0.711758 0.57593
LeftFoot  -8.43634 0.154523 -4.10307
LeftToes  9.86798e-010 -1.28139e-010 1.4132e-011
594
root  83.4926 38.6054 -1.67179 -51.9629 -84.5867 49.6773
RightUpLeg  5.8048 -10.4414 -6.50361
RightLeg  11.3482 -1.28924 0.0386895
RightFoot  -16.4041 -0.124187 -0.297296
RightToes  -4.65661e-009 0 -3.6325e-017
Spine  6.7333 1.79135 11.3328
Spine1  3.08811 4.68477 -11.3906
HEad  -5.28437 -8.29409 -7.33025
LeftShoulder1  -0.332438 4.39999 -30.9622
LeftArm  -9.6424 18.9934 -43.6065
LeftForeArm  33.5585 -11.1556 -5.55512
LeftHand  -0.0517601 6.43657 -1.5511
RightShoulder  -0.884891 -5.95731 29.4753
RightArm  26.3109 6.54658 50.1333
RightForeArm  9.09422 15.494 7.05915
RightHand  -0.378552 4.13905 -4.86721
LeftUpLeg  -19.4541 5.61758 -1.90386
LeftLeg  14.7094 0.58758 0.388609
LeftFoot  -7.84453 0.17057 -4.05784
LeftToes  9.86798e-010 -1.28139e-010 1.4132e-011
